<?xml version="1.0" encoding="utf-8"?>
<!-- Generator: Adobe Illustrator 19.2.1, SVG Export Plug-In . SVG Version: 6.00 Build 0)  -->
<svg version="1.1" id="layer" xmlns="http://www.w3.org/2000/svg" xmlns:xlink="http://www.w3.org/1999/xlink" x="0px" y="0px"
	 viewBox="0 0 652 652" style="enable-background:new 0 0 652 652;" xml:space="preserve">
<style type="text/css">
	.st0{fill:#006BA6;}
</style>
<g id="Home">
	<g id="Home-Copy" transform="translate(-75.000000, -58.000000)">
		<g id="_x31_400-expanded" transform="translate(-1.500000, 0.000000)">
			<g id="top-bar">
				<g id="logo" transform="translate(76.000000, 58.000000)">
					<path id="Fill-1" class="st0" d="M71.3,312.3c-0.7-0.6-1.7-1.4-2.7-1.6L67,342.1l7.9-21.8C75.6,317,73.8,314.2,71.3,312.3"/>
					<path id="Fill-2" class="st0" d="M58.3,310.3l4.6,31.3l4.5-31.3C64.8,309.3,61.3,309.2,58.3,310.3"/>
					<path id="Fill-3" class="st0" d="M54.5,312.3c-2.5,2.1-4.3,4.8-3.6,8l7.9,21.8l-1.6-31.4C56.2,310.9,55.2,311.5,54.5,312.3"/>
					<path id="Fill-4" class="st0" d="M38.7,315.2c5.2,9.1,10.6,18.9,15.8,27.7c-1.9-7.7-3.7-20.4-6.4-24
						C45,314.6,38.7,315.2,38.7,315.2"/>
					<path id="Fill-5" class="st0" d="M29.4,319.8l21.5,24.7l-13.4-29.2C34.1,315.5,31.1,317.2,29.4,319.8"/>
					<path id="Fill-6" class="st0" d="M74.3,326.5l-3.6,16.9c4.6-7.9,9.1-15.7,13.6-23.6C80.1,320.1,75.8,321.7,74.3,326.5"/>
					<path id="Fill-7" class="st0" d="M85.5,319.8l-11.4,25.1l19.9-21.6C91.8,320.9,88.9,319.8,85.5,319.8"/>
					<path id="Fill-8" class="st0" d="M26.6,330.9c7,5.3,14,10.9,21,16.2l-18.9-26.6C26.9,323.6,26.4,327.1,26.6,330.9"/>
					<path id="Fill-9" class="st0" d="M96.5,326.4c-0.4-0.9-0.9-1.6-1.6-2.2l-17.2,23.4c6.8-5.1,13.4-10.3,19.9-15.3
						C97.8,330.1,97.5,328.1,96.5,326.4"/>
					<path id="Fill-10" class="st0" d="M26.6,341.8l18.3,8.4c-6.1-6.1-12.2-11.9-18.3-17.8V341.8"/>
					<path id="Fill-11" class="st0" d="M97.8,342.4v-8.5l-17.3,16.7C86.4,347.8,91.8,345.2,97.8,342.4"/>
					<path id="Fill-12" class="st0" d="M26.6,350.1c5.6,1.2,11.5,2.7,16.4,3.8l-16.4-10.9V350.1"/>
					<path id="Fill-13" class="st0" d="M97.8,350.6V344c-5.2,3.2-10.5,6.7-15.3,10L97.8,350.6"/>
					<path id="Fill-14" class="st0" d="M26.6,358.3h16.1l-16.1-6.8V358.3"/>
					<path id="Fill-15" class="st0" d="M97.8,358.3v-6.2c-5.3,2.2-9.9,4.1-14.8,6.2H97.8"/>
					<path id="Fill-16" class="st0" d="M92.2,311.4c0.1-9.6-14-9.6-13.7-0.1C78.4,320.2,92.6,320.7,92.2,311.4"/>
					<path id="Fill-17" class="st0" d="M92.2,311.4L92.2,311.4L92.2,311.4L92.2,311.4"/>
					<path id="Fill-18" class="st0" d="M46.2,306.5c0.5-9.6-14.6-9.3-14,0C31.8,316.1,47.1,316.2,46.2,306.5"/>
					<path id="Fill-19" class="st0" d="M62.9,308.3c5.6,0.1,7.8-4,7.9-7.8c0.2-5.9-3.5-8.4-7.9-8.4c-4.5,0-8,2.6-7.8,8.4
						C55.2,303.9,56.6,308.2,62.9,308.3"/>
					<path id="Fill-20" class="st0" d="M181.3,320.3h6.6v37.6h-6.6V320.3z"/>
					<path id="Fill-21" class="st0" d="M158.2,320.3l-11.1,31.9l-10.9-13.6l14.5-18.3h-7.5l-13.4,17.8v-17.8h-6.6v37.6h6.6v-18.5
						l13.8,18.5h1.5l0,0h6.4L155,347h13.8l3.6,10.9h6.8l-13.1-37.6H158.2L158.2,320.3z M156.6,341.8l5.1-15.6h0.1l5.2,15.6H156.6
						L156.6,341.8z"/>
					<path id="Fill-22" class="st0" d="M400.3,347.5l-6.6-27.2h-11.5v37.6h6.4v-32l8.3,32h6.6c0.1,0,8.3-32,8.3-32v32h6.4v-37.6H407
						L400.3,347.5"/>
					<path id="Fill-23" class="st0" d="M434.7,320.3L421.6,358h6.4l3.5-10.9h14l3.7,10.9h6.8l-13.1-37.7H434.7L434.7,320.3z
						 M433.2,341.8l5.1-15.6h0.1l5.3,15.6H433.2L433.2,341.8z"/>
					<path id="Fill-24" class="st0" d="M482.5,349.4l-15.1-29.1h-8.7v37.6h6.2v-28.3l14.8,28.3h8.9v-37.6h-6.3v29.1"/>
					<path id="Fill-25" class="st0" d="M606.5,352.5h-15.6v-10.6h11.5v-5.4h-11.5v-10.6c1.5,0,14.2,0,14.2,0v-5.4
						c-3.8,0-20.8,0-20.8,0V358h22L606.5,352.5"/>
					<path id="Fill-26" class="st0" d="M546.8,320.2L546.8,320.2h-1.2v29.4l-15.1-29.3h-8.7v32.1h-19.9v-10.6h11.5v-5.4h-11.5v-10.6
						c1.5,0,14.2,0,14.2,0v-5.4c-3.8,0-20.6,0-20.6,0V358h32h0.5v-28.8l14.8,28.7h8.9V326h11.5v32h6.6v-32H581v-5.7h-34.2"/>
					<path id="Fill-27" class="st0" d="M372.9,339c2.1-1.7,3.6-4.6,3.6-8c0-3.5-1.5-6.2-3.6-7.9c-2.3-2-5.6-2.7-11-2.7h-11v15.9l0,0
						v16.3h-20v-10.6h11.5v-5.4h-11.5v-10.6c1.5,0,14.2,0,14.2,0v-5.4c-3.8,0-20.8,0-20.8,0v37.7h33.1v-16.2h3.2
						c3,4.7,9.4,16.1,9.4,16.1h7.8l-10.1-16.6C369.9,341,371.5,340.1,372.9,339L372.9,339z M357.5,336.4v-10.6h5.6
						c4.9,0,6.9,2,6.9,5.2c0,3.6-2,5.3-6.9,5.3h-5.6V336.4z"/>
					<path id="Fill-28" class="st0" d="M269.5,339c2.1-1.7,3.6-4.6,3.6-8c0-3.5-1.5-6.2-3.6-7.9c-2.2-2-5.6-2.7-11-2.7h-11v15.9l0,0
						v16.3h-20v-10.6H239v-5.4h-11.5v-10.6c1.5,0,14.2,0,14.2,0v-5.4c-3.8,0-20.8,0-20.8,0v37.7H254v-16.2h3.2
						c3,4.7,9.4,16.1,9.4,16.1h7.8l-10.1-16.6C266.7,341,268.3,340.1,269.5,339L269.5,339z M254.2,336.4v-10.6h5.6
						c4.9,0,6.9,2,6.9,5.2c0,3.6-2,5.3-6.9,5.3h-5.6V336.4z"/>
					<path id="Fill-29" class="st0" d="M316.8,323.2c-2.3-2-5.6-2.8-11-2.8h-11V358h6.6v-15.6h4.5c5.4,0,8.7-1,10.9-3
						c2.1-1.7,3.6-4.7,3.6-8.2S318.8,324.9,316.8,323.2L316.8,323.2z M307,336.9h-5.6v-11.1h5.6c4.9,0,6.9,2.2,6.9,5.4
						C313.9,334.6,311.7,336.9,307,336.9L307,336.9z"/>
					<path id="Fill-30" class="st0" d="M207.1,336c-5.2-1.9-7.5-3.3-7.5-6.3c0-2.2,2.3-4.8,6.8-4.8c3.3,0,6.6,1.1,8.2,2v-5.4
						c-1.7-0.9-4.8-1.7-8-1.7c-8.2,0-13.7,4.6-13.7,10.6c0,5.4,4.2,8.8,10.5,10.9c4.9,1.7,7,3.5,7,6.4c0,3.2-2.7,5.4-7.3,5.4
						c-3.6,0-8-1.2-10.4-2.7v5.8c2.2,1.2,6.2,2.2,9.9,2.2c9.8,0,14.5-5.2,14.5-11.3C217.1,341.6,213.6,338.4,207.1,336"/>
					<path id="Fill-31" class="st0" d="M612.4,351.2c0-3.6,2.7-6.3,6.3-6.3c3.5,0,6.2,2.7,6.2,6.3c0,3.7-2.7,6.3-6.2,6.3
						C615.3,357.6,612.4,354.9,612.4,351.2L612.4,351.2z M618.8,358.9c4.2,0,7.8-3.2,7.8-7.7c0-4.3-3.6-7.7-7.8-7.7
						c-4.2,0-7.8,3.2-7.8,7.7C611,355.7,614.6,358.9,618.8,358.9L618.8,358.9z M617.1,351.8h1.5l2.3,3.8h1.5l-2.5-3.8
						c1.4-0.1,2.3-0.9,2.3-2.5c0-1.7-1-2.5-3.1-2.5h-3.3v8.8h1.4v-3.8H617.1z M617.1,350.7V348h1.9c1,0,2,0.2,2,1.2
						c0,1.4-1,1.5-2.1,1.5H617.1L617.1,350.7z"/>
				</g>
			</g>
		</g>
	</g>
</g>
</svg>
